<svg width="19" height="19" viewBox="0 0 19 19" fill="none" xmlns="http://www.w3.org/2000/svg">
<path d="M16.9219 17.2185H16.625V15.5561C18.05 14.5467 19 12.8842 19 10.9843C19 7.00632 14.9031 4.2154 11.2218 5.75938C11.2811 5.64067 11.2811 5.52197 11.2811 5.34385C11.2811 4.80946 11.0435 4.33447 10.628 3.9782L10.3312 2.90942L11.5781 3.26569V0.89067L10.3312 1.24693L10.6874 0H8.31244L8.6687 1.24693L7.42178 0.89067V3.26569L8.6687 2.90942L8.37186 3.9782C7.95618 4.33447 7.71877 4.80946 7.71877 5.34385C7.71877 5.52198 7.71877 5.64069 7.77819 5.75953C4.09691 4.21562 0 7.00632 0 10.9845C0 12.8845 0.949951 14.547 2.37498 15.5562V17.2187H2.07815C1.60317 17.2187 1.1875 17.6344 1.1875 18.1093C1.1875 18.5843 1.60317 19 2.07815 19H16.9218C17.3968 19 17.8125 18.5843 17.8125 18.1093C17.8125 17.6344 17.3968 17.2187 16.9218 17.2187L16.9219 17.2185ZM4.75007 16.6248C4.39381 16.6248 4.15638 16.3873 4.15638 16.0311C4.15638 15.6749 4.39394 15.4375 4.75007 15.4375C5.10633 15.4375 5.34375 15.675 5.34375 16.0311C5.34389 16.3873 5.04691 16.6248 4.75007 16.6248ZM7.12505 16.6248C6.76879 16.6248 6.53137 16.3873 6.53137 16.0311C6.53137 15.6749 6.76892 15.4375 7.12505 15.4375C7.48131 15.4375 7.71874 15.675 7.71874 16.0311C7.71888 16.3873 7.4219 16.6248 7.12505 16.6248ZM7.71888 14.2498H2.61261C1.72196 13.4186 1.18757 12.2904 1.18757 10.9841C1.18757 7.6592 4.69062 5.52164 7.59988 7.00614C7.65931 7.00614 7.65931 7.06556 7.71859 7.06556L7.71888 14.2498ZM9.50004 1.48415C9.8563 1.48415 10.0937 1.72171 10.0937 2.07784C10.0937 2.43411 9.85617 2.67153 9.50004 2.67153C9.14378 2.67153 8.90635 2.43398 8.90635 2.07784C8.90635 1.72158 9.14377 1.48415 9.50004 1.48415ZM9.50004 6.53101C9.8563 6.53101 10.0937 6.76857 10.0937 7.1247C10.0937 7.48097 9.85617 7.71839 9.50004 7.71839C9.14378 7.71839 8.90635 7.48084 8.90635 7.1247C8.90635 6.76844 9.14377 6.53101 9.50004 6.53101ZM9.50004 10.6871C9.8563 10.6871 10.0937 10.9247 10.0937 11.2808C10.0937 11.6371 9.85617 11.8745 9.50004 11.8745C9.14378 11.8745 8.90635 11.6369 8.90635 11.2808C8.90635 10.9247 9.14377 10.6871 9.50004 10.6871ZM9.50004 16.6247C9.14378 16.6247 8.90635 16.3872 8.90635 16.031C8.90635 15.6748 9.14391 15.4373 9.50004 15.4373C9.8563 15.4373 10.0937 15.6749 10.0937 16.031C10.0937 16.3872 9.79688 16.6247 9.50004 16.6247ZM11.875 16.6247C11.5188 16.6247 11.2813 16.3872 11.2813 16.031C11.2813 15.6748 11.5189 15.4373 11.875 15.4373C12.2313 15.4373 12.4687 15.6749 12.4687 16.031C12.4687 16.3872 12.1719 16.6247 11.875 16.6247ZM14.25 16.6247C13.8937 16.6247 13.6563 16.3872 13.6563 16.031C13.6563 15.6748 13.8939 15.4373 14.25 15.4373C14.6063 15.4373 14.8437 15.6749 14.8437 16.031C14.8437 16.3872 14.5469 16.6247 14.25 16.6247ZM11.2812 14.2497V7.06515C11.3407 7.06515 11.3407 7.00573 11.3999 7.00573C14.3093 5.52137 17.8123 7.65883 17.8123 10.9837C17.8123 12.2899 17.2779 13.4182 16.3872 14.2494L11.2812 14.2497Z" fill="url(#paint0_linear_823_1721)"/>
<defs>
<linearGradient id="paint0_linear_823_1721" x1="9.5" y1="0" x2="9.5" y2="19" gradientUnits="userSpaceOnUse">
<stop stop-color="#FFE24B"/>
<stop offset="1" stop-color="#FFB31F"/>
</linearGradient>
</defs>
</svg>
